<svg width="1545" height="417" viewBox="0 0 1545 417" fill="none" xmlns="http://www.w3.org/2000/svg">
<path fill-rule="evenodd" clip-rule="evenodd" d="M120.554 137.577C108.036 146.651 92.6427 152 76 152C34.0264 152 0 117.974 0 76C0 34.0264 34.0264 0 76 0C117.974 0 152 34.0264 152 76C152 83.7512 150.84 91.2317 148.683 98.2766L295.224 145.947C306.158 124.606 328.373 110 354 110C390.451 110 420 139.549 420 176C420 212.451 390.451 242 354 242C336.342 242 320.303 235.065 308.459 223.771L254.567 261.318L309.818 318.883C318.923 312.049 330.239 308 342.5 308C372.599 308 397 332.4 397 362.5C397 392.6 372.599 417 342.5 417C312.4 417 288 392.6 288 362.5C288 348.624 293.186 335.958 301.726 326.337L245.43 267.684L197.722 300.924C199.201 305.517 200 310.415 200 315.5C200 341.734 178.734 363 152.5 363C126.266 363 105 341.734 105 315.5C105 289.266 126.266 268 152.5 268C169.672 268 184.716 277.112 193.06 290.765L237.719 259.65L120.554 137.577ZM102 76C102 90.3594 90.3594 102 76 102C61.6406 102 50 90.3594 50 76C50 61.6406 61.6406 50 76 50C90.3594 50 102 61.6406 102 76ZM128.989 130.48L246.856 253.284L301.109 215.485C292.876 204.474 288 190.806 288 176C288 170.833 288.594 165.805 289.717 160.98L142.373 113.049C138.766 119.498 134.247 125.366 128.989 130.48ZM354 212C373.882 212 390 195.882 390 176C390 156.118 373.882 140 354 140C334.118 140 318 156.118 318 176C318 195.882 334.118 212 354 212ZM178 315.5C178 329.583 166.583 341 152.5 341C138.417 341 127 329.583 127 315.5C127 301.417 138.417 290 152.5 290C166.583 290 178 301.417 178 315.5ZM342.5 395C360.449 395 375 380.449 375 362.5C375 344.551 360.449 330 342.5 330C324.551 330 310 344.551 310 362.5C310 380.449 324.551 395 342.5 395Z" fill="black"/>
<path d="M534.453 82.9778V201H549.325V129.283L590.459 186.603H590.775L633.016 126.877V201H648.204V82.9778H647.888L590.9 162.881L534.612 82.9778H534.453Z" fill="black"/>
<path d="M915.76 204.639L831.765 119.441L832.069 201H816.723V83.136H817.514L901.352 169.4L901.047 86.6167H916.235V204.639H915.76Z" fill="black"/>
<path fill-rule="evenodd" clip-rule="evenodd" d="M1115.15 86.6167C1120.95 86.6167 1126.28 87.4077 1131.13 88.9897C1136.09 90.4663 1140.36 92.7339 1143.95 95.7925C1147.64 98.7458 1150.49 102.437 1152.49 106.867C1154.6 111.191 1155.65 116.254 1155.65 122.055C1155.65 126.59 1154.97 131.02 1153.6 135.344C1152.33 139.668 1150.17 143.624 1147.11 147.21C1144.42 150.275 1140.99 152.849 1136.82 154.932L1165.46 201H1147.74L1120.83 158.813C1119.61 158.882 1118.35 158.917 1117.05 158.917H1100.12V201H1084.78V86.6167H1115.15ZM1116.74 144.204C1121.27 144.204 1125.02 143.518 1127.97 142.147C1131.03 140.776 1133.4 139.036 1135.09 136.926C1136.77 134.711 1137.99 132.338 1138.73 129.807C1139.46 127.276 1139.83 124.903 1139.83 122.688C1139.83 120.367 1139.41 117.994 1138.57 115.568C1137.83 113.037 1136.56 110.717 1134.77 108.607C1133.08 106.498 1130.82 104.758 1127.97 103.386C1125.23 102.015 1121.85 101.33 1117.84 101.33H1100.12V144.204H1116.74Z" fill="black"/>
<path d="M1263.42 86.6167H1189.06V201H1265.64V186.287H1204.41V150.848H1257.09V136.135H1204.41V101.33H1263.42V86.6167Z" fill="black"/>
<path fill-rule="evenodd" clip-rule="evenodd" d="M1322.8 86.6167C1331.14 86.6167 1338.25 88.0405 1344.16 90.8882C1350.07 93.6304 1354.6 97.6384 1357.77 102.912C1361.04 108.185 1362.67 114.566 1362.67 122.055C1362.67 126.59 1361.99 131.073 1360.61 135.502C1359.24 139.827 1357.03 143.782 1353.97 147.368C1351.02 150.848 1347.11 153.644 1342.26 155.753C1337.41 157.862 1331.5 158.917 1324.54 158.917H1307.62V201H1292.27V86.6167H1322.8ZM1324.39 144.204C1328.92 144.204 1332.66 143.466 1335.62 141.989C1338.57 140.512 1340.89 138.667 1342.58 136.452C1344.27 134.131 1345.48 131.706 1346.22 129.174C1346.96 126.643 1347.33 124.375 1347.33 122.371C1347.33 120.051 1346.96 117.678 1346.22 115.252C1345.48 112.721 1344.21 110.453 1342.42 108.449C1340.73 106.34 1338.47 104.652 1335.62 103.386C1332.88 102.015 1329.45 101.33 1325.33 101.33H1307.62V144.204H1324.39Z" fill="black"/>
<path d="M633.491 339.639L549.496 254.442L549.8 336H534.453V218.136H535.245L619.083 304.4L618.778 221.617H633.965V339.639H633.491Z" fill="black"/>
<path d="M741.216 221.617H666.859V336H743.431V321.287H682.205V285.848H734.888V271.135H682.205V236.33H741.216V221.617Z" fill="black"/>
<path d="M761.679 221.617H837.618V236.33H806.926V336H791.58V236.33H761.679V221.617Z" fill="black"/>
<path d="M869.743 222.25H852.024L897.587 341.221L926.831 272.934L953.592 341.062L998.523 222.25H982.228L954.016 303.717L922.267 222.25H906.921L919.253 253.642L899.259 305.375L869.743 222.25Z" fill="black"/>
<path fill-rule="evenodd" clip-rule="evenodd" d="M1123 281C1123 279.509 1122.95 278.031 1122.84 276.566C1122.57 269.518 1121.06 262.856 1118.3 256.58C1115.24 249.514 1110.97 243.291 1105.48 237.912C1100.1 232.427 1093.88 228.156 1086.81 225.097C1082.49 223.132 1077.97 221.777 1073.24 221.032C1069.59 220.354 1065.84 220 1062 220C1028.31 220 1001 247.311 1001 281C1001 314.689 1028.31 342 1062 342C1095.69 342 1123 314.689 1123 281ZM1062 302C1073.6 302 1083 292.598 1083 281C1083 269.402 1073.6 260 1062 260C1050.4 260 1041 269.402 1041 281C1041 292.598 1050.4 302 1062 302Z" fill="black"/>
<path fill-rule="evenodd" clip-rule="evenodd" d="M1195.09 223.99C1190.24 222.408 1184.92 221.617 1179.12 221.617H1148.74V336H1164.09V293.917H1181.01C1182.31 293.917 1183.57 293.882 1184.8 293.813L1211.71 336H1229.43L1200.79 289.932C1204.95 287.849 1208.38 285.275 1211.07 282.21C1214.13 278.624 1216.29 274.668 1217.56 270.344C1218.93 266.02 1219.62 261.59 1219.62 257.055C1219.62 251.254 1218.56 246.191 1216.45 241.867C1214.45 237.437 1211.6 233.746 1207.91 230.792C1204.32 227.734 1200.05 225.466 1195.09 223.99ZM1191.93 277.147C1188.98 278.518 1185.23 279.204 1180.7 279.204H1164.09V236.33H1181.81C1185.81 236.33 1189.19 237.015 1191.93 238.386C1194.78 239.758 1197.05 241.498 1198.73 243.607C1200.53 245.717 1201.79 248.037 1202.53 250.568C1203.37 252.994 1203.8 255.367 1203.8 257.688C1203.8 259.903 1203.43 262.276 1202.69 264.807C1201.95 267.338 1200.74 269.711 1199.05 271.926C1197.36 274.036 1194.99 275.776 1191.93 277.147Z" fill="black"/>
<path d="M1268.53 221.617V267.655L1268.06 273.35L1270.11 270.502L1316.94 221.617H1336.72L1289.41 270.661L1339.41 336H1319.95L1278.18 280.469L1268.53 289.804V336H1253.03V221.617H1268.53Z" fill="black"/>
<path d="M1434.76 221.617H1360.4V336H1436.98V321.287H1375.75V285.848H1428.43V271.135H1375.75V236.33H1434.76V221.617Z" fill="black"/>
<path fill-rule="evenodd" clip-rule="evenodd" d="M1493.98 221.617C1499.79 221.617 1505.11 222.408 1509.96 223.99C1514.92 225.466 1519.19 227.734 1522.78 230.792C1526.47 233.746 1529.32 237.437 1531.32 241.867C1533.43 246.191 1534.49 251.254 1534.49 257.055C1534.49 261.59 1533.8 266.02 1532.43 270.344C1531.16 274.668 1529 278.624 1525.94 282.21C1523.25 285.275 1519.82 287.849 1515.65 289.932L1544.29 336H1526.57L1499.67 293.813C1498.44 293.882 1497.18 293.917 1495.88 293.917H1478.95V336H1463.61V221.617H1493.98ZM1495.57 279.204C1500.1 279.204 1503.85 278.518 1506.8 277.147C1509.86 275.776 1512.23 274.036 1513.92 271.926C1515.61 269.711 1516.82 267.338 1517.56 264.807C1518.3 262.276 1518.66 259.903 1518.66 257.688C1518.66 255.367 1518.24 252.994 1517.4 250.568C1516.66 248.037 1515.39 245.717 1513.6 243.607C1511.91 241.498 1509.65 239.758 1506.8 238.386C1504.06 237.015 1500.68 236.33 1496.67 236.33H1478.95V279.204H1495.57Z" fill="black"/>
<path fill-rule="evenodd" clip-rule="evenodd" d="M732 204C765.689 204 793 176.689 793 143C793 109.311 765.689 82 732 82C698.311 82 671 109.311 671 143C671 176.689 698.311 204 732 204ZM732 164C743.598 164 753 154.598 753 143C753 131.402 743.598 122 732 122C720.402 122 711 131.402 711 143C711 154.598 720.402 164 732 164Z" fill="black"/>
<path fill-rule="evenodd" clip-rule="evenodd" d="M1062 143C1062 176.689 1034.69 204 1001 204C967.311 204 940 176.689 940 143C940 109.311 967.311 82 1001 82C1034.69 82 1062 109.311 1062 143ZM1032 143C1032 160.121 1018.12 174 1001 174C983.879 174 970 160.121 970 143C970 125.879 983.879 112 1001 112C1018.12 112 1032 125.879 1032 143Z" fill="black"/>
<path fill-rule="evenodd" clip-rule="evenodd" d="M1497 143C1497 176.689 1469.69 204 1436 204C1402.31 204 1375 176.689 1375 143C1375 109.311 1402.31 82 1436 82C1469.69 82 1497 109.311 1497 143ZM1447 143C1447 149.075 1442.08 154 1436 154C1429.92 154 1425 149.075 1425 143C1425 136.925 1429.92 132 1436 132C1442.08 132 1447 136.925 1447 143Z" fill="black"/>
</svg>
